<mxfile host="app.diagrams.net" modified="2023-12-04T00:13:37.717Z" agent="Mozilla/5.0 (Windows NT 10.0; Win64; x64) AppleWebKit/537.36 (KHTML, like Gecko) Chrome/119.0.0.0 Safari/537.36 Edg/119.0.0.0" etag="Y28DXqnNpIbj9p4dnTvY" version="22.1.5" type="device" pages="2">
  <diagram name="Страница — 1" id="o3sYmgAIau1fM3dsohi6">
    <mxGraphModel dx="601" dy="311" grid="1" gridSize="10" guides="1" tooltips="1" connect="1" arrows="1" fold="1" page="1" pageScale="1" pageWidth="3300" pageHeight="2339" math="0" shadow="0">
      <root>
        <mxCell id="0" />
        <mxCell id="1" parent="0" />
        <mxCell id="QvXpTpCXxzrsCJCGJff7-12" style="edgeStyle=orthogonalEdgeStyle;rounded=0;orthogonalLoop=1;jettySize=auto;html=1;exitX=0;exitY=0.5;exitDx=0;exitDy=0;entryX=0;entryY=0.5;entryDx=0;entryDy=0;" edge="1" parent="1" target="MUi1yYkGbGkddvzHHs3n-1">
          <mxGeometry relative="1" as="geometry">
            <mxPoint x="170" y="805.0967741935483" as="sourcePoint" />
          </mxGeometry>
        </mxCell>
        <mxCell id="QvXpTpCXxzrsCJCGJff7-18" style="edgeStyle=orthogonalEdgeStyle;rounded=0;orthogonalLoop=1;jettySize=auto;html=1;exitX=1;exitY=0.25;exitDx=0;exitDy=0;entryX=0;entryY=0.25;entryDx=0;entryDy=0;" edge="1" parent="1" source="MUi1yYkGbGkddvzHHs3n-1" target="QvXpTpCXxzrsCJCGJff7-16">
          <mxGeometry relative="1" as="geometry">
            <Array as="points">
              <mxPoint x="640" y="793" />
              <mxPoint x="640" y="843" />
            </Array>
          </mxGeometry>
        </mxCell>
        <mxCell id="MUi1yYkGbGkddvzHHs3n-1" value="&lt;span style=&quot;font-size: 14px;&quot;&gt;Программирование расписания&lt;br&gt;доступа&lt;br&gt;&lt;/span&gt;" style="html=1;align=center;verticalAlign=top;rounded=1;absoluteArcSize=1;arcSize=10;dashed=0;whiteSpace=wrap;" parent="1" vertex="1">
          <mxGeometry x="270" y="780" width="220" height="50" as="geometry" />
        </mxCell>
        <mxCell id="gx2m8ANJ89_CgAaHZRdq-5" value="&lt;font style=&quot;font-size: 11px;&quot;&gt;Данные умных&lt;br&gt;замков&lt;br&gt;&lt;/font&gt;" style="text;html=1;strokeColor=none;fillColor=none;align=center;verticalAlign=middle;whiteSpace=wrap;rounded=0;" parent="1" vertex="1">
          <mxGeometry x="150" y="790" width="140" height="30" as="geometry" />
        </mxCell>
        <mxCell id="QvXpTpCXxzrsCJCGJff7-14" style="edgeStyle=orthogonalEdgeStyle;rounded=0;orthogonalLoop=1;jettySize=auto;html=1;exitX=0;exitY=0.5;exitDx=0;exitDy=0;entryX=0;entryY=0.5;entryDx=0;entryDy=0;" edge="1" parent="1" target="QvXpTpCXxzrsCJCGJff7-13">
          <mxGeometry relative="1" as="geometry">
            <mxPoint x="170" y="925.0967741935483" as="sourcePoint" />
          </mxGeometry>
        </mxCell>
        <mxCell id="QvXpTpCXxzrsCJCGJff7-19" style="edgeStyle=orthogonalEdgeStyle;rounded=0;orthogonalLoop=1;jettySize=auto;html=1;exitX=1;exitY=0.75;exitDx=0;exitDy=0;entryX=0;entryY=0.75;entryDx=0;entryDy=0;" edge="1" parent="1" source="QvXpTpCXxzrsCJCGJff7-13" target="QvXpTpCXxzrsCJCGJff7-16">
          <mxGeometry relative="1" as="geometry">
            <Array as="points">
              <mxPoint x="650" y="937" />
              <mxPoint x="650" y="867" />
            </Array>
          </mxGeometry>
        </mxCell>
        <mxCell id="QvXpTpCXxzrsCJCGJff7-13" value="&lt;span style=&quot;font-size: 14px;&quot;&gt;Программирование системных настроек&lt;br&gt;&lt;/span&gt;" style="html=1;align=center;verticalAlign=top;rounded=1;absoluteArcSize=1;arcSize=10;dashed=0;whiteSpace=wrap;" vertex="1" parent="1">
          <mxGeometry x="270" y="900" width="220" height="50" as="geometry" />
        </mxCell>
        <mxCell id="QvXpTpCXxzrsCJCGJff7-15" value="&lt;font style=&quot;font-size: 11px;&quot;&gt;Данные умных&lt;br&gt;замков&lt;br&gt;&lt;/font&gt;" style="text;html=1;strokeColor=none;fillColor=none;align=center;verticalAlign=middle;whiteSpace=wrap;rounded=0;" vertex="1" parent="1">
          <mxGeometry x="150" y="910" width="140" height="30" as="geometry" />
        </mxCell>
        <mxCell id="QvXpTpCXxzrsCJCGJff7-22" style="edgeStyle=orthogonalEdgeStyle;rounded=0;orthogonalLoop=1;jettySize=auto;html=1;exitX=1;exitY=0.5;exitDx=0;exitDy=0;" edge="1" parent="1" source="QvXpTpCXxzrsCJCGJff7-16" target="QvXpTpCXxzrsCJCGJff7-17">
          <mxGeometry relative="1" as="geometry" />
        </mxCell>
        <mxCell id="QvXpTpCXxzrsCJCGJff7-16" value="&lt;span style=&quot;font-size: 14px;&quot;&gt;Проверка &lt;br&gt;работоспособности&lt;br&gt;&lt;/span&gt;" style="html=1;align=center;verticalAlign=top;rounded=1;absoluteArcSize=1;arcSize=10;dashed=0;whiteSpace=wrap;" vertex="1" parent="1">
          <mxGeometry x="670" y="830" width="220" height="50" as="geometry" />
        </mxCell>
        <mxCell id="QvXpTpCXxzrsCJCGJff7-24" style="edgeStyle=orthogonalEdgeStyle;rounded=0;orthogonalLoop=1;jettySize=auto;html=1;exitX=1;exitY=0.5;exitDx=0;exitDy=0;" edge="1" parent="1" source="QvXpTpCXxzrsCJCGJff7-17">
          <mxGeometry relative="1" as="geometry">
            <mxPoint x="1380" y="855" as="targetPoint" />
          </mxGeometry>
        </mxCell>
        <mxCell id="QvXpTpCXxzrsCJCGJff7-17" value="&lt;span style=&quot;font-size: 14px;&quot;&gt;Взаимодействие с умными&lt;br&gt;замками&lt;br&gt;&lt;/span&gt;" style="html=1;align=center;verticalAlign=top;rounded=1;absoluteArcSize=1;arcSize=10;dashed=0;whiteSpace=wrap;" vertex="1" parent="1">
          <mxGeometry x="1020" y="830" width="220" height="50" as="geometry" />
        </mxCell>
        <mxCell id="QvXpTpCXxzrsCJCGJff7-20" value="&lt;font style=&quot;font-size: 11px;&quot;&gt;Обновленное расписание&lt;br&gt;доступа&lt;br&gt;&lt;/font&gt;" style="text;html=1;strokeColor=none;fillColor=none;align=center;verticalAlign=middle;whiteSpace=wrap;rounded=0;" vertex="1" parent="1">
          <mxGeometry x="500" y="780" width="140" height="30" as="geometry" />
        </mxCell>
        <mxCell id="QvXpTpCXxzrsCJCGJff7-21" value="&lt;font style=&quot;font-size: 11px;&quot;&gt;Обновленное системные настройки&lt;br&gt;&lt;/font&gt;" style="text;html=1;strokeColor=none;fillColor=none;align=center;verticalAlign=middle;whiteSpace=wrap;rounded=0;" vertex="1" parent="1">
          <mxGeometry x="500" y="920" width="140" height="30" as="geometry" />
        </mxCell>
        <mxCell id="QvXpTpCXxzrsCJCGJff7-25" style="edgeStyle=orthogonalEdgeStyle;rounded=0;orthogonalLoop=1;jettySize=auto;html=1;exitX=1;exitY=0.25;exitDx=0;exitDy=0;entryX=1;entryY=0.25;entryDx=0;entryDy=0;" edge="1" parent="1" target="QvXpTpCXxzrsCJCGJff7-23">
          <mxGeometry relative="1" as="geometry">
            <mxPoint x="640" y="820" as="sourcePoint" />
            <Array as="points">
              <mxPoint x="761" y="821" />
              <mxPoint x="1000" y="820" />
              <mxPoint x="1000" y="848" />
            </Array>
          </mxGeometry>
        </mxCell>
        <mxCell id="QvXpTpCXxzrsCJCGJff7-26" style="edgeStyle=orthogonalEdgeStyle;rounded=0;orthogonalLoop=1;jettySize=auto;html=1;entryX=1;entryY=1;entryDx=0;entryDy=0;" edge="1" parent="1" target="QvXpTpCXxzrsCJCGJff7-23">
          <mxGeometry relative="1" as="geometry">
            <mxPoint x="650" y="930" as="sourcePoint" />
            <Array as="points">
              <mxPoint x="1000" y="930" />
              <mxPoint x="1000" y="870" />
            </Array>
          </mxGeometry>
        </mxCell>
        <mxCell id="QvXpTpCXxzrsCJCGJff7-23" value="&lt;font style=&quot;font-size: 11px;&quot;&gt;Результат&lt;br&gt;проверки&lt;br&gt;&lt;/font&gt;" style="text;html=1;strokeColor=none;fillColor=none;align=center;verticalAlign=middle;whiteSpace=wrap;rounded=0;" vertex="1" parent="1">
          <mxGeometry x="880" y="840" width="140" height="30" as="geometry" />
        </mxCell>
        <mxCell id="QvXpTpCXxzrsCJCGJff7-27" value="&lt;font style=&quot;font-size: 11px;&quot;&gt;Данные настроенных умных замков&lt;br&gt;&lt;/font&gt;" style="text;html=1;strokeColor=none;fillColor=none;align=center;verticalAlign=middle;whiteSpace=wrap;rounded=0;" vertex="1" parent="1">
          <mxGeometry x="1240" y="840" width="140" height="30" as="geometry" />
        </mxCell>
        <mxCell id="QvXpTpCXxzrsCJCGJff7-28" value="421" style="text;html=1;strokeColor=none;fillColor=none;align=center;verticalAlign=middle;whiteSpace=wrap;rounded=0;" vertex="1" parent="1">
          <mxGeometry x="450" y="810" width="60" height="30" as="geometry" />
        </mxCell>
        <mxCell id="QvXpTpCXxzrsCJCGJff7-29" value="422" style="text;html=1;strokeColor=none;fillColor=none;align=center;verticalAlign=middle;whiteSpace=wrap;rounded=0;" vertex="1" parent="1">
          <mxGeometry x="450" y="930" width="60" height="30" as="geometry" />
        </mxCell>
        <mxCell id="QvXpTpCXxzrsCJCGJff7-30" value="423" style="text;html=1;strokeColor=none;fillColor=none;align=center;verticalAlign=middle;whiteSpace=wrap;rounded=0;" vertex="1" parent="1">
          <mxGeometry x="850" y="860" width="60" height="30" as="geometry" />
        </mxCell>
        <mxCell id="QvXpTpCXxzrsCJCGJff7-31" value="424" style="text;html=1;strokeColor=none;fillColor=none;align=center;verticalAlign=middle;whiteSpace=wrap;rounded=0;" vertex="1" parent="1">
          <mxGeometry x="1200" y="860" width="60" height="30" as="geometry" />
        </mxCell>
      </root>
    </mxGraphModel>
  </diagram>
  <diagram id="30CSTh-y9SVbLgZfz-_A" name="Страница — 2">
    <mxGraphModel dx="1624" dy="840" grid="1" gridSize="10" guides="1" tooltips="1" connect="1" arrows="1" fold="1" page="1" pageScale="1" pageWidth="3300" pageHeight="2339" math="0" shadow="0">
      <root>
        <mxCell id="0" />
        <mxCell id="1" parent="0" />
      </root>
    </mxGraphModel>
  </diagram>
</mxfile>
